<?xml version="1.0" encoding="utf-8"?>
<!-- Generator: Adobe Illustrator 19.1.0, SVG Export Plug-In . SVG Version: 6.00 Build 0)  -->
<!DOCTYPE svg PUBLIC "-//W3C//DTD SVG 1.1//EN" "http://www.w3.org/Graphics/SVG/1.1/DTD/svg11.dtd">
<svg version="1.1" id="Layer_1" xmlns="http://www.w3.org/2000/svg" xmlns:xlink="http://www.w3.org/1999/xlink" x="0px" y="0px"
	 viewBox="0 0 200 200" enable-background="new 0 0 200 200" xml:space="preserve">
<rect fill="#FFFFFF" width="200" height="200"/>
<g>
	<path fill="#00CCBC" d="M180.5,176.3c-46.6-18.7-54.6-26.5-55.9-29v-6.2c5.2-6,9.3-13.8,11.9-22.8c3.2-2.9,5.4-6.9,6-11.3
		c0.6-4.6-0.4-9.1-2.9-12.9v-18c0-24.2-14.4-38.1-39.6-38.1c-24.8,0-39.7,14.2-39.7,38.1v18c-2.5,3.8-3.5,8.3-2.9,12.9
		c0.6,4.4,2.8,8.5,6,11.3c2.6,9,6.7,16.8,11.9,22.8v6.2c-1.3,2.4-9.3,10.3-55.9,29c-3.9,1.6-6.5,5.4-6.5,9.8v9.1
		c0,2.4,2,4.4,4.4,4.4c2.4,0,4.4-2,4.4-4.4v-9.1c0-0.8,0.4-1.5,1-1.7c50.8-20.4,59.4-29.1,61.1-35c0.1-0.4,0.2-0.8,0.2-1.3v-8.7
		c0-1.1-0.4-2.2-1.2-3c-5.1-5.4-9-12.9-11.4-21.8c-0.3-1-0.8-1.8-1.6-2.4c-2-1.5-3.4-3.9-3.8-6.5c-0.4-2.7,0.4-5.5,2-7.6
		c0.6-0.8,0.9-1.7,0.9-2.7V76.1c0-18.9,11-29.4,30.9-29.4c20.5,0,30.9,9.9,30.9,29.4v19.4c0,1,0.3,1.9,0.9,2.7
		c1.7,2.2,2.4,4.9,2.1,7.6c-0.4,2.6-1.7,5-3.8,6.5c-0.8,0.6-1.4,1.4-1.6,2.4c-2.4,8.8-6.3,16.4-11.4,21.8c-0.8,0.8-1.2,1.9-1.2,3
		v8.7c0,0.4,0.1,0.8,0.2,1.3c1.8,5.9,10.4,14.6,61.2,35c0.6,0.2,1,1,1,1.7v9.1c0,2.4,2,4.4,4.4,4.4s4.4-2,4.4-4.4v-9.1
		C187,181.8,184.4,177.9,180.5,176.3z"/>
</g>
</svg>
